<svg width="30" height="30" viewBox="0 0 30 30" fill="none" xmlns="http://www.w3.org/2000/svg">
  <path d="M6.66666 3.33325H3.33333V6.66659H6.66666V3.33325Z" fill="#2B2C3C"/>
  <path d="M26.6667 3.33325H23.3333V6.66659H26.6667V3.33325Z" fill="#2B2C3C"/>
  <path d="M9.99999 6.66675H6.66666V13.3334H3.33333V23.3334H6.66666V16.6667H13.3333V13.3334H9.99999V6.66675Z" fill="#2B2C3C"/>
  <path d="M16.6667 10H13.3333V13.3333H16.6667V10Z" fill="#2B2C3C"/>
  <path d="M20 6.66675V13.3334H16.6667V16.6667H23.3333V23.3334H26.6667V13.3334H23.3333V6.66675H20Z" fill="#2B2C3C"/>
  <path d="M6.66666 6.66675H3.33333V13.3334H6.66666V6.66675Z" fill="#1B1C28"/>
  <path d="M13.3333 10H10V13.3333H13.3333V10Z" fill="#1B1C28"/>
  <path d="M20 10H16.6667V13.3333H20V10Z" fill="#1B1C28"/>
  <path d="M26.6667 6.66675H23.3333V13.3334H26.6667V6.66675Z" fill="#1B1C28"/>
  <path d="M10 16.6667H6.66667V20.0001H10V16.6667Z" fill="#000000"/>
  <path d="M23.3333 16.6667H20V20.0001H23.3333V16.6667Z" fill="#000000"/>
  <path d="M20 19.9999V16.6666H16.6667V13.3333H13.3333V16.6666H10V19.9999H6.66667V26.6666H23.3333V19.9999H20ZM16.6667 23.3333H13.3333V19.9999H16.6667V23.3333Z" fill="#DADAF1"/>
  <path d="M16.6667 20H13.3333V23.3333H16.6667V20Z" fill="#A8A8FF"/>
</svg>
