<svg width="300" height="300" viewBox="0 0 300 300" fill="none" xmlns="http://www.w3.org/2000/svg">
<path d="M0 20C0 8.9543 8.95431 0 20 0H280C291.046 0 300 8.95431 300 20V280C300 291.046 291.046 300 280 300H20C8.9543 300 0 291.046 0 280V20Z" fill="#343434"/>
<path d="M175 100V75H100V100H150V150H100V100H75V175H100V200H175V175H200V100H175Z" fill="#EBEAF7"/>
<path d="M150 100H100V150H150V100Z" fill="white"/>
<path d="M175 50H100V75H175L175 50Z" fill="#D38100"/>
<path d="M200 75H175V100H200L200 75Z" fill="#D38100"/>
<path d="M225 100H200V175L225 175V100Z" fill="#D38100"/>
<path d="M200 175H175V200L200 200L200 175Z" fill="#D38100"/>
<path d="M175 200H100V225H175L175 200Z" fill="#D38100"/>
<path d="M100 175H75V200L100 200V175Z" fill="#D38100"/>
<path d="M75 100H50V175L75 175V100Z" fill="#D38100"/>
<path d="M100 75H75V100H100V75Z" fill="#D38100"/>
<path d="M225 200L200 200L200 225H225V200Z" fill="#FFB100"/>
<path d="M250 225L225 225L225 250H250V225Z" fill="#FFB100"/>
</svg>
