<svg width="200" height="200" viewBox="0 0 200 200" fill="none" xmlns="http://www.w3.org/2000/svg">
<path d="M125 50V25H50V50H100V100H50V50H25V125H50V150H125V125H150V50H125Z" fill="#EBEAF7"/>
<path d="M100 50H50V100H100V50Z" fill="white"/>
<path d="M125 0H50V25H125L125 0Z" fill="#D38100"/>
<path d="M150 25H125V50H150L150 25Z" fill="#D38100"/>
<path d="M175 50H150V125L175 125V50Z" fill="#D38100"/>
<path d="M150 125H125V150L150 150L150 125Z" fill="#D38100"/>
<path d="M125 150H50V175H125L125 150Z" fill="#D38100"/>
<path d="M50 125H25V150L50 150V125Z" fill="#D38100"/>
<path d="M25 50H0V125L25 125V50Z" fill="#D38100"/>
<path d="M50 25H25V50H50V25Z" fill="#D38100"/>
<path d="M175 150L150 150L150 175H175V150Z" fill="#FFB100"/>
<path d="M200 175L175 175L175 200H200V175Z" fill="#FFB100"/>
</svg>
